<?xml version="1.0" encoding="utf-8"?><svg xmlns="http://www.w3.org/2000/svg" xmlns:xlink="http://www.w3.org/1999/xlink"><symbol viewBox="0 0 17.64 14.03" id="buy" xmlns="http://www.w3.org/2000/svg"><path d="M17.725 3.662l.002.001-2.475 5.5a.823.823 0 01-.698.484l-7.127.475.411 1.177H15.6c.911 0 1.649 1.081 1.649 1.65a1.649 1.649 0 11-3.3 0h-7.7a1.65 1.65 0 11-3.3 0c0-.569.739-1.65 1.65-1.65H6.9L2.914 2.224H1.24c-.671 0-1.041-.369-1.041-.825 0-.455.37-.825 1.041-.825h2.259c.36 0 .663.232.776.554l.003-.001.481 1.372h12.215a.825.825 0 01.751 1.163zm-12.389.487l1.525 4.357 7.089-.166 1.749-4.191H5.336z"/></symbol><symbol viewBox="0 0 12.78 25.7" id="fb" xmlns="http://www.w3.org/2000/svg"><path d="M12.89.198v4.121s-3.38-.149-4.599.862c-.416.636-.17 2.499.559 3.999h3.264a64.892 64.892 0 00-.835 3.817H8.62V25.8H2.48V13.47H.105V9.18h2.349c.121-2.45.166-6.026 2.376-7.512C5.728.1 7.296.198 12.89.198z"/></symbol><symbol viewBox="0 0 32 30.65" id="icon1" xmlns="http://www.w3.org/2000/svg"><path d="M30.739 9.502a15.715 15.715 0 00-8.242-8.242A5.841 5.841 0 0126.125 0a5.873 5.873 0 015.874 5.873 5.846 5.846 0 01-1.26 3.629zm-.24 6.497c0 3.852-1.512 7.343-3.962 9.94l2.028 2.028c.268.269.435.64.435 1.193 0 .675-.665 1.339-1.484 1.339-.409 0-.78-.165-1.048.151l-2.179-2.764c-2.35 1.643-4.449 2.613-8.29 2.613-3.078 0-5.289-.966-8.276-2.603L5.56 30.6c-.271-.269-.646-.101-1.061-.101a1.5 1.5 0 01-1.06-2.561l2.012-2.011c-1.751-2.596-3.952-6.082-3.952-9.928 0-8.008 6.492-14.5 14.5-14.5 8.801 0 14.5 6.492 14.5 14.5zm-14.5-11.5c-6.351 0-11.5 5.149-11.5 11.5 0 6.352 5.149 11.5 11.5 11.5 6.352 0 11.5-5.148 11.5-11.5 0-6.351-5.148-11.5-11.5-11.5zm6.001 13h-6.001a1.5 1.5 0 01-1.499-1.5v-8a1.5 1.5 0 112.999 0v6.5H22a1.5 1.5 0 010 3zM1.287 9.705A5.968 5.968 0 010 5.999 5.999 5.999 0 015.999 0a5.97 5.97 0 013.706 1.286 16.054 16.054 0 00-8.418 8.419z"/></symbol><symbol viewBox="0 0 32 32.04" id="icon2" xmlns="http://www.w3.org/2000/svg"><path d="M31.64 25.889l-15.047 5.988a1.506 1.506 0 01-1.187 0L.935 25.889A1.499 1.499 0 010 24.499v-23C0 .671.671 0 1.499 0c.204 0 .397.4 1.231.113l.02.001.14.006 13.109 5.756L29.91.12l.013-.006.003-.001c.177.287.37-.113.573-.113a1.5 1.5 0 011.5 1.499v23c0 .629-.386 1.167-.359 1.39zM14.499 8.502l-11.5-4.759v19.753l11.5 4.759V8.502zM29 3.743L17.499 8.502v19.753L29 23.496V3.743zm-9.121 6.891l5.5-2.5c.189.336.399-.135.62-.135a1.5 1.5 0 01.621 2.866l-5.5 2.5a1.5 1.5 0 11-1.241-2.731zm0 5.5l5.5-2.501a1.5 1.5 0 011.241 2.732l-5.5 2.5v-.001a1.5 1.5 0 01-1.241-2.73zm0 5.5l5.5-2.5c.189.336.399-.135.62-.135a1.5 1.5 0 01.621 2.866l-5.5 2.5a1.5 1.5 0 11-1.241-2.731zM6 7.999c.221 0 .431.471.62.135l5.5 2.5a1.499 1.499 0 01-.621 2.865c-.221 0 .181-.048-.62-.134l-5.5-2.5A1.5 1.5 0 016 7.999zm0 5.5c.221 0 .431.049.62.134l5.5 2.501a1.499 1.499 0 01-.621 2.865c-.221 0 .181-.048-.62-.135v.001l-5.5-2.5A1.5 1.5 0 016 13.499zm0 5.5c.221 0 .431.471.62.135l5.5 2.5a1.499 1.499 0 01-.621 2.865c-.221 0 .181-.048-.62-.134l-5.5-2.5A1.5 1.5 0 016 18.999z"/></symbol><symbol viewBox="0 0 32 32" id="icon3" xmlns="http://www.w3.org/2000/svg"><path d="M30.499 31.999h-29A1.5 1.5 0 010 30.499v-29C0 .671.671 0 1.499 0h29A1.5 1.5 0 0132 1.499v29a1.5 1.5 0 01-1.501 1.5zm-1.5-29H3v26h25.999v-26zM5.215 16.238l-.001-.001 4-2.5.001.001a1.496 1.496 0 011.625.036l.005-.009 6.631 4.42 7.638-5.391c.249-.182.554-.289.886-.289.828 0 1.499.671 1.499 1.995 0 .005-.245.448-.621.72v.001l-8.5 6v-.001a1.49 1.49 0 01-1.74.012l-6.656-4.437-3.136 1.959c-.241.166-.532.416-.847.416-.828 0-1.5-.825-1.5-1.653a1.5 1.5 0 01.716-1.279z"/></symbol><symbol viewBox="0 0 32 30.5" id="icon4" xmlns="http://www.w3.org/2000/svg"><path d="M31.999 16.499a1.5 1.5 0 01-1.5 1.5c-.395 0-.751-.156-1.019-.405l-.004.003L16.38 4.159v-.001l-.381-.036v-.001L2.553 17.568v-.001A1.5 1.5 0 010 16.499c0 .241.177-.808.46-1.081L14.918.96a1.496 1.496 0 011.081-.461H16l.79.002.13.001c-.806.002-.783.004-.761.006l.004.001c.368.039.695.212 1.797.467h.01l5.029 5.902V5.499a1.5 1.5 0 013 0v4.379l5.598 5.598-.003.003c.25.268.405.625.405 1.02zm-3 2.5v10.5a1.5 1.5 0 01-1.499 1.5h-3.001v-12H18.5v12h-14a1.5 1.5 0 01-1.5-1.5v-10.5l12.999-13 13 13zm-15.5 0h-6V25h6v-6.001z"/></symbol><symbol viewBox="0 0 31 28" id="icon5" xmlns="http://www.w3.org/2000/svg"><path d="M30 22.999h-9.501v2.5l2.001 2v.5h-13v-.5l1.999-2v-2.5H2a1.5 1.5 0 01-1.5-1.5v-20A1.5 1.5 0 012 0h28a1.5 1.5 0 011.5 1.499v20a1.5 1.5 0 01-1.5 1.5zm-.5-21h-27v17h27v-17zm-16.501 7c.415 0 .79.168 1.601.439l.399.94 2.94-2.939a1.5 1.5 0 012.56 1.06c0 .414-.167.789.101 1.061l-4 4c-.811.271-1.186.439-1.601.439-.414 0-.789-.168-1.06-.439l-2-2a1.5 1.5 0 011.06-2.561z"/></symbol><symbol viewBox="0 0 32 32" id="icon6" xmlns="http://www.w3.org/2000/svg"><path d="M30.5 31.999h-29a1.5 1.5 0 01-1.5-1.5v-29A1.5 1.5 0 011.5 0h29A1.5 1.5 0 0132 1.499v29a1.5 1.5 0 01-1.5 1.5zm-1.5-29H2.999v26H29v-26zm-22.5 1.5h5.499a1.5 1.5 0 110 3H7.5v4.5a1.5 1.5 0 01-3.001 0v-7.5H6.5zm-2.001 15.5a1.5 1.5 0 013.001 0v4.5h4.499a1.5 1.5 0 110 3h-7.5v-7.5zm15.5-15.5h7.5v7.5a1.5 1.5 0 11-3 0v-4.5h-4.5a1.5 1.5 0 110-3zm0 20h4.5v-4.5a1.5 1.5 0 013 0v7.5h-7.5a1.5 1.5 0 110-3z"/></symbol><symbol viewBox="0 0 25.6 25.6" id="instagram" xmlns="http://www.w3.org/2000/svg"><path d="M22.699 25.799h-19.2a3.2 3.2 0 01-3.2-3.2v-19.2a3.2 3.2 0 013.2-3.2h19.2a3.2 3.2 0 013.201 3.2v19.2a3.2 3.2 0 01-3.201 3.2zM13.1 8.39c-1.996 0-3.712.83-4.499 2.529h-.004c-.009.018-.014.037-.022.055-.047.816-.089.213-.129.321-.019.053-.039.103-.057.156a5.474 5.474 0 00-.095.339c-.013.054-.03.106-.041.161-.026.769-.044.243-.062.367-.006.051-.017.099-.022.15a4.96 4.96 0 004.931 5.491c2.739 0 5.49-2.22 5.49-4.96 0-.179-.1-.356-.29-.531-.05-.051-.16-.099.4-.15-.71-.124-.728.402-.754-.367-.012-.055-.028-.107-.041-.161a5.474 5.474 0 00-.095-.339c-.018-.053-.038-.103-.057-.156-.04-.108-.082.495-.129-.321l-.022-.055h-.004C16.811 9.22 15.95 8.39 13.1 8.39zm10.09-4.031c0-.707-.744-.569-1.451-.569h-2.56c-.706 0-1.279-.138-1.279.569v2.56c0 .707.573 1.28 1.279 1.28h2.56c.707 0 1.451-.573 1.451-1.28v-2.56zm0 6.56h-2.53a7.84 7.84 0 11-15.121 0h-2.36v10.72c0 .707.574 1.28 1.28 1.28h17.28c.707 0 1.451-.573 1.451-1.28v-10.72z"/></symbol><symbol viewBox="0 0 20.1 26.59" id="pinterest" xmlns="http://www.w3.org/2000/svg"><path d="M9.5 16.853c-.659.833-.869 1.707-1.088 2.561-.215.841.388 1.696-.717 2.469-.519 1.282-1.179 2.52-2.044 3.522.119 1.315-.452.4-.391.364-.366-.027-.378-.156-.404-.344-.141-1.019-.045-2.195.008-2.575.059-2.068.333-3.152.588-4.236.485-2.063.946-4.087 1.435-6.163.033-.138.813.389.09.049-.221-1.072-.365-1.589-.428-2.195a5.414 5.414 0 01.139-1.943c.276-1.058.913-1.996 1.894-2.122a1.605 1.605 0 011.734-.084c.433.258 1.134.666.868 1.245.147.769.038 1.351-.08 1.892-.267 1.218-.618 2.133-.937 3.309.733.584-.337 1.183-.19 1.812.136.578.437.977.848 1.275.425.31.929.48 1.624.456 1.228-.043 2.081-.828 2.652-1.569 1.029-1.184 1.465-2.783 1.674-4.686.068-.613.118-1.318.07-2.014-.087-1.284-.489-2.316-1.126-3.117-.607-.762-1.466-1.369-2.512-1.269-1.037-.78-2.473-.893-3.748-.674-2.317.397-3.952 1.714-4.914 3.532-.145.952-.837 2.048-.837 3.41 0 1.051.259 1.865.678 2.5.132.202.328.367.458.597.446.326-.029.812-.12 1.345-.11.245-.121 1.12-.618 1.22-.205.03-.463-.525-.638-.621-1.304-.029-2.097-2.034-2.008-3.159-.611-1.33-.611-2.815 0-3.814-.223-.966.131-1.858.523-2.581a9.23 9.23 0 013.459-3.562C6.558 1.22 7.818.56 9.349.337a16.36 16.36 0 011.605-.132c1.668-.079 3.185.299 4.326.935 1.206.413 2.167 1.131 2.981 2.02 1.719 1.59 1.447 1.98 2.689 3.309-.654.692-.458 1.433-.458 2.287 0 .858-.181 1.613-.307 2.369-.474 2.828-1.819 5.14-3.838 6.457a6.673 6.673 0 01-1.754.81c-.668.194-1.428.339-2.243.283-.792-.055-1.439-.27-1.984.305-.54-1.188-.994-1.561-.866-2.127z"/></symbol><symbol viewBox="0 0 17.6 17.6" id="search" xmlns="http://www.w3.org/2000/svg"><path d="M17.316 14.982c.299.299.483.711.483 1.167 0 1.461-.189 1.65-1.649 1.65-.456 0-.869-.185-1.167-.483l-4.836-4.836c-.982 1.13-1.917.919-3.348.919a6.6 6.6 0 116.6-6.6c0 1.431.211 2.365-.919 3.347l4.836 4.836zM6.799 1.849c-2.139 0-4.95 2.801-4.95 4.95 0 2.734 2.811 4.95 4.95 4.95a4.95 4.95 0 004.95-4.95c0-2.149-2.216-4.95-4.95-4.95z"/></symbol><symbol viewBox="0 0 25.55 21.09" id="twitter" xmlns="http://www.w3.org/2000/svg"><path d="M17.512.6c2.035-.036 3.117.706 4.151 1.648.878-.075 2.019-.566 2.691-.907.218-.119.436-.239 1.446-.357-1.176 1.226-1.697 1.849-2.496 2.465-.178.136-.354.322-.577.409v.012c1.14-.011 2.08-.525 2.973-.21v.13c-.469.034-1.104.79-1.781 1.333-.274.217-.547.434.071.651-.877 1.207-.18 2.358-1.135 3.373-1.312 6.273-4.175 10.293-10.289 11.611-1.975.616-5.168.869-7.431.892-1.015-.864-2.136-1.179-2.665-1.09-.951-.735-1.18-.986-1.909-1.271-.154-.094-.308-.187.429.511-.38-.56.217-.636.788-.08.516-.732 1.023-.61 1.499-.814 1.188-.261 2.243-.605 3.152-1.137.441-.258 1.109-.56 1.422-.932-.59.01-1.125-.127-1.563-.281-1.699-.6-2.688-1.703-3.331-3.36.515.056 1.998.19 2.344.744-.648-.36-1.001-1.258-1.716-1.536-1.367-.855-2.482-2.289-2.473-4.497.179.086.358.873.538.255.343.145.692.223 1.102.308.173.035.519.137.717.063h-.025c-.265-.307-.696-.333-.961-.843C1.606 6.6.784 4.923 1.304 2.925c.132-.507.341-.954.564-1.367l.025.013c.102.214.33.371.474.549.448.555 1.001 1.055 1.563 1.495 1.918 1.5 3.646 2.745 6.42 3.104 1.18.173 1.517.531 2.357.541-.236-.922-.16-2.034.026-2.7.467-1.673 1.483-2.879 2.973-3.21.914-.47.751-.583 1.165-.673.979-.026.428-.051.641-.077z"/></symbol></svg>