<svg aria-hidden="true" style="position:absolute;width:0;height:0" xmlns="http://www.w3.org/2000/svg" overflow="hidden"><defs><symbol id="fb" viewBox="0 0 32 32"><path d="M23.865.244v5.072s-4.16-.183-5.66 1.061c-.512.783-.209 3.076.688 4.922h4.017c-.42 1.727-.72 3.031-1.028 4.698h-3.273v15.758h-7.557V16.58H8.129V11.3h2.891c.149-3.015.204-7.417 2.924-9.246C15.049.124 16.979.245 23.864.245z"/></symbol><symbol id="icon1" viewBox="0 0 32 32"><path d="M30.739 10.002a15.715 15.715 0 00-8.242-8.242A5.841 5.841 0 0126.125.5a5.873 5.873 0 015.874 5.873 5.846 5.846 0 01-1.26 3.629zm-.24 6.497c0 3.852-1.512 7.343-3.962 9.94l2.028 2.028c.268.269.435.64.435 1.193 0 .675-.665 1.339-1.484 1.339-.409 0-.78-.165-1.048.151l-2.179-2.764c-2.35 1.643-4.449 2.613-8.29 2.613-3.078 0-5.289-.966-8.276-2.603L5.56 31.1c-.271-.269-.646-.101-1.061-.101a1.5 1.5 0 01-1.06-2.561l2.012-2.011c-1.751-2.596-3.952-6.082-3.952-9.928 0-8.008 6.492-14.5 14.5-14.5 8.801 0 14.5 6.492 14.5 14.5zm-14.5-11.5c-6.351 0-11.5 5.149-11.5 11.5 0 6.352 5.149 11.5 11.5 11.5s11.5-5.148 11.5-11.5c0-6.351-5.148-11.5-11.5-11.5zm6.001 13h-6.001a1.5 1.5 0 01-1.499-1.5v-8a1.5 1.5 0 112.999 0v6.5H22a1.5 1.5 0 010 3zM1.287 10.205A5.968 5.968 0 010 6.499 5.999 5.999 0 015.999.5a5.97 5.97 0 013.706 1.286 16.054 16.054 0 00-8.418 8.419z"/></symbol><symbol id="icon2" viewBox="0 0 32 32"><path d="M31.64 25.889l-15.047 5.988a1.506 1.506 0 01-1.187 0L.935 25.889A1.499 1.499 0 010 24.499v-23C0 .671.671 0 1.499 0c.204 0 .397.4 1.231.113l.02.001.14.006 13.109 5.756L29.91.12l.013-.006.003-.001c.177.287.37-.113.573-.113a1.5 1.5 0 011.5 1.499v23c0 .629-.386 1.167-.359 1.39zM14.499 8.502l-11.5-4.759v19.753l11.5 4.759V8.502zM29 3.743L17.499 8.502v19.753L29 23.496V3.743zm-9.121 6.891l5.5-2.5c.189.336.399-.135.62-.135a1.5 1.5 0 01.621 2.866l-5.5 2.5a1.5 1.5 0 11-1.241-2.731zm0 5.5l5.5-2.501a1.5 1.5 0 011.241 2.732l-5.5 2.499a1.5 1.5 0 01-1.241-2.73zm0 5.5l5.5-2.5c.189.336.399-.135.62-.135a1.5 1.5 0 01.621 2.866l-5.5 2.5a1.5 1.5 0 11-1.241-2.731zM6 7.999c.221 0 .431.471.62.135l5.5 2.5a1.499 1.499 0 01-.621 2.865c-.221 0 .181-.048-.62-.134l-5.5-2.5A1.5 1.5 0 016 7.999zm0 5.5c.221 0 .431.049.62.134l5.5 2.501a1.499 1.499 0 01-.621 2.865c-.221 0 .181-.048-.62-.135v.001l-5.5-2.5A1.5 1.5 0 016 13.499zm0 5.5c.221 0 .431.471.62.135l5.5 2.5a1.499 1.499 0 01-.621 2.865c-.221 0 .181-.048-.62-.134l-5.5-2.5A1.5 1.5 0 016 18.999z"/></symbol><symbol id="icon3" viewBox="0 0 32 32"><path d="M30.499 31.999h-29A1.5 1.5 0 010 30.499v-29C0 .671.671 0 1.499 0h29A1.5 1.5 0 0132 1.499v29a1.5 1.5 0 01-1.501 1.5zm-1.5-29H3v26h25.999v-26zM5.215 16.238l-.001-.001 4.001-2.499a1.496 1.496 0 011.625.036l.005-.009 6.631 4.42 7.638-5.391c.249-.182.554-.289.886-.289.828 0 1.499.671 1.499 1.995 0 .005-.245.448-.621.72v.001l-8.5 5.999a1.49 1.49 0 01-1.74.012l-6.656-4.437-3.136 1.959c-.241.166-.532.416-.847.416-.828 0-1.5-.825-1.5-1.653a1.5 1.5 0 01.716-1.279z"/></symbol><symbol id="icon4" viewBox="0 0 32 32"><path d="M31.999 16.999a1.5 1.5 0 01-1.5 1.5c-.395 0-.751-.156-1.019-.405l-.004.003L16.38 4.658l-.381-.036v-.001L2.553 18.067A1.5 1.5 0 010 16.999c0 .241.177-.808.46-1.081L14.918 1.46a1.496 1.496 0 011.081-.461H16l.79.002.13.001c-.806.002-.783.004-.761.006l.004.001c.368.039.695.212 1.797.467h.01l5.029 5.902V5.999a1.5 1.5 0 013 0v4.379l5.598 5.598-.003.003c.25.268.405.625.405 1.02zm-3 2.5v10.5a1.5 1.5 0 01-1.499 1.5h-3.001v-12H18.5v12h-14a1.5 1.5 0 01-1.5-1.5v-10.5l12.999-13 13 13zm-15.5 0h-6V25.5h6v-6.001z"/></symbol><symbol id="icon5" viewBox="0 0 32 32"><path d="M30 24.999h-9.501v2.5l2.001 2v.5h-13v-.5l1.999-2v-2.5H2a1.5 1.5 0 01-1.5-1.5v-20A1.5 1.5 0 012 2h28a1.5 1.5 0 011.5 1.499v20a1.5 1.5 0 01-1.5 1.5zm-.5-21h-27v17h27v-17zm-16.501 7c.415 0 .79.168 1.601.439l.399.94 2.94-2.939a1.5 1.5 0 012.56 1.06c0 .414-.167.789.101 1.061l-4 4c-.811.271-1.186.439-1.601.439s-.789-.168-1.06-.439l-2-2a1.5 1.5 0 011.06-2.561z"/></symbol><symbol id="icon6" viewBox="0 0 32 32"><path d="M30.5 31.999h-29a1.5 1.5 0 01-1.5-1.5v-29A1.5 1.5 0 011.5 0h29A1.5 1.5 0 0132 1.499v29a1.5 1.5 0 01-1.5 1.5zm-1.5-29H2.999v26H29v-26zm-22.5 1.5h5.499a1.5 1.5 0 110 3H7.5v4.5a1.5 1.5 0 01-3.001 0v-7.5H6.5zm-2.001 15.5a1.5 1.5 0 013.001 0v4.5h4.499a1.5 1.5 0 110 3h-7.5v-7.5zm15.5-15.5h7.5v7.5a1.5 1.5 0 11-3 0v-4.5h-4.5a1.5 1.5 0 110-3zm0 20h4.5v-4.5a1.5 1.5 0 013 0v7.5h-7.5a1.5 1.5 0 110-3z"/></symbol><symbol id="instagram" viewBox="0 0 32 32"><path d="M27.937 31.753H4.306a3.939 3.939 0 01-3.938-3.938V4.184A3.939 3.939 0 014.306.246h23.631a3.94 3.94 0 013.94 3.938v23.631a3.939 3.939 0 01-3.94 3.938zM16.123 10.326c-2.457 0-4.569 1.022-5.537 3.113h-.005c-.011.022-.017.046-.027.068-.058 1.004-.11.262-.159.395-.023.065-.048.127-.07.192a7.346 7.346 0 00-.117.417c-.016.066-.037.13-.05.198-.032.946-.054.299-.076.452-.007.063-.021.122-.027.185a6.105 6.105 0 006.069 6.759c3.371 0 6.757-2.732 6.757-6.105 0-.22-.123-.438-.357-.654-.062-.063-.197-.122.492-.185-.874-.153-.896.495-.928-.452-.015-.068-.034-.132-.05-.198a7.12 7.12 0 00-.117-.417c-.022-.065-.047-.127-.07-.192-.049-.133-.101.609-.159-.395-.01-.022-.017-.046-.027-.068h-.005c-.969-2.091-2.028-3.113-5.536-3.113zm12.419-4.961c0-.87-.916-.7-1.786-.7h-3.151c-.869 0-1.574-.17-1.574.7v3.151c0 .87.705 1.575 1.574 1.575h3.151c.87 0 1.786-.705 1.786-1.575V5.365zm0 8.074h-3.114c.224.816.345 1.674.345 2.56a9.649 9.649 0 11-19.298 0c0-.886.119-1.744.343-2.56H3.913v13.194c0 .87.706 1.575 1.575 1.575h21.268c.87 0 1.786-.705 1.786-1.575V13.439z"/></symbol><symbol id="pinterest" viewBox="0 0 32 32"><path d="M14.769 20.742c-.811 1.025-1.07 2.101-1.339 3.152-.265 1.035.478 2.087-.882 3.039-.639 1.578-1.451 3.102-2.516 4.335.146 1.618-.556.492-.481.448-.45-.033-.465-.192-.497-.423-.174-1.254-.055-2.702.01-3.169.073-2.545.41-3.879.724-5.214.597-2.539 1.164-5.03 1.766-7.585.041-.17 1.001.479.111.06-.272-1.319-.449-1.956-.527-2.702a6.656 6.656 0 01.171-2.391c.34-1.302 1.124-2.457 2.331-2.612a1.975 1.975 0 012.134-.103c.533.318 1.396.82 1.068 1.532.181.946.047 1.663-.098 2.329-.329 1.499-.761 2.625-1.153 4.073.902.719-.415 1.456-.234 2.23a2.59 2.59 0 001.044 1.569c.523.382 1.143.591 1.999.561 1.511-.053 2.561-1.019 3.264-1.931 1.266-1.457 1.803-3.425 2.06-5.767.084-.754.145-1.622.086-2.479-.107-1.58-.602-2.85-1.386-3.836-.747-.938-1.804-1.685-3.092-1.562-1.276-.96-3.044-1.099-4.613-.83-2.852.489-4.864 2.11-6.048 4.347-.178 1.172-1.03 2.521-1.03 4.197 0 1.294.319 2.295.834 3.077.162.249.404.452.564.735.549.401-.036.999-.148 1.655-.135.302-.149 1.378-.761 1.502-.252.037-.57-.646-.785-.764-1.605-.036-2.581-2.503-2.471-3.888-.752-1.637-.752-3.465 0-4.694-.274-1.189.161-2.287.644-3.177 1.002-1.85 2.47-3.328 4.257-4.384 1.374-.57 2.924-1.382 4.809-1.657.626-.092 1.274-.129 1.975-.162 2.053-.097 3.92.368 5.324 1.151 1.484.508 2.667 1.392 3.669 2.486 2.116 1.957 1.781 2.437 3.31 4.073-.805.852-.564 1.764-.564 2.815 0 1.056-.223 1.985-.378 2.916-.583 3.481-2.239 6.326-4.724 7.947a8.22 8.22 0 01-2.159.997c-.822.239-1.758.417-2.761.348-.975-.068-1.771-.332-2.442.375-.665-1.462-1.223-1.921-1.066-2.618z"/></symbol><symbol id="buy" viewBox="0 0 32 32"><path d="M31.511 9.177l.004.002-4.4 9.778a1.462 1.462 0 01-1.241.86l-12.67.844.731 2.092h13.799c1.62 0 2.932 1.922 2.932 2.933a2.933 2.933 0 01-5.867 0H11.11a2.932 2.932 0 11-5.866 0c0-1.012 1.314-2.933 2.933-2.933h4.091L5.182 6.62H2.206C1.013 6.62.355 5.964.355 5.153c0-.809.658-1.467 1.851-1.467h4.016c.64 0 1.179.412 1.38.985l.005-.002.855 2.439h21.716a1.466 1.466 0 011.335 2.068zm-22.025.866l2.711 7.746 12.603-.295 3.109-7.451H9.486z"/></symbol><symbol id="twitter" viewBox="0 0 32 32"><path d="M21.553 3.2c2.505-.044 3.836.869 5.109 2.028 1.081-.092 2.485-.697 3.312-1.116.268-.146.537-.294 1.78-.439-1.447 1.509-2.089 2.276-3.072 3.034-.219.167-.436.396-.71.503v.015c1.403-.014 2.56-.646 3.659-.258v.16c-.577.042-1.359.972-2.192 1.641-.337.267-.673.534.087.801-1.079 1.486-.222 2.902-1.397 4.151-1.615 7.721-5.138 12.668-12.663 14.29-2.431.758-6.361 1.07-9.146 1.098-1.249-1.063-2.629-1.451-3.28-1.342-1.17-.905-1.452-1.214-2.35-1.564-.19-.116-.379-.23.528.629-.468-.689.267-.783.97-.098.635-.901 1.259-.751 1.845-1.002 1.462-.321 2.761-.745 3.879-1.399.543-.318 1.365-.689 1.75-1.147-.726.012-1.385-.156-1.924-.346-2.091-.738-3.308-2.096-4.1-4.135.634.069 2.459.234 2.885.916-.798-.443-1.232-1.548-2.112-1.89-1.682-1.052-3.055-2.817-3.044-5.535.22.106.441 1.074.662.314.422.178.852.274 1.356.379.213.043.639.169.882.078h-.031c-.326-.378-.857-.41-1.183-1.038C1.974 10.586.962 8.522 1.602 6.063c.162-.624.42-1.174.694-1.682l.031.016c.126.263.406.457.583.676.551.683 1.232 1.298 1.924 1.84 2.361 1.846 4.487 3.378 7.902 3.82 1.452.213 1.867.654 2.901.666-.29-1.135-.197-2.503.032-3.323.575-2.059 1.825-3.543 3.659-3.951 1.125-.578.924-.718 1.434-.828 1.205-.032.527-.063.789-.095z"/></symbol><symbol id="search" viewBox="0 0 32 32"><path d="M30.784 26.635c.532.532.859 1.264.859 2.075 0 2.597-.336 2.933-2.932 2.933a2.926 2.926 0 01-2.075-.859l-8.597-8.597c-1.746 2.009-3.408 1.634-5.952 1.634-6.48 0-11.733-5.253-11.733-11.733S5.607.355 12.087.355c6.482 0 11.733 5.253 11.733 11.733 0 2.544.375 4.204-1.634 5.95l8.597 8.597zM12.087 3.287c-3.803 0-8.8 4.98-8.8 8.8 0 4.86 4.997 8.8 8.8 8.8a8.8 8.8 0 008.8-8.8c0-3.82-3.94-8.8-8.8-8.8z"/></symbol></defs></svg>