<svg 
 xmlns="http://www.w3.org/2000/svg"
viewbox="0 0 13 26"
 >
<path 
 d="M12.89,0.198 C12.89,1.675 12.89,4.319 12.89,4.319 C12.89,4.319 9.51,4.17 8.291,5.181 C7.875,5.817 8.121,7.680 8.85,9.18 C9.411,9.18 10.788,9.18 12.114,9.18 C11.773,10.583 11.529,11.643 11.279,12.997 C10.131,12.997 8.62,12.997 8.62,12.997 L8.62,25.800 C8.62,25.800 4.265,25.800 2.480,25.800 C2.481,21.853 2.480,17.248 2.480,13.47 C1.613,13.47 0.972,13.47 0.105,13.47 C0.105,11.571 0.105,10.495 0.105,9.18 C0.946,9.18 1.612,9.18 2.454,9.18 C2.575,6.73 2.620,3.154 4.83,1.668 C5.728,0.1 7.296,0.198 12.89,0.198 Z"/>
</svg>