<svg 
 xmlns="http://www.w3.org/2000/svg"
 viewbox="0 0 26 26"
 >
<path 
 d="M22.699,25.799 L3.499,25.799 C1.732,25.799 0.299,24.366 0.299,22.599 L0.299,3.399 C0.299,1.632 1.732,0.199 3.499,0.199 L22.699,0.199 C24.467,0.199 25.900,1.632 25.900,3.399 L25.900,22.599 C25.900,24.366 24.467,25.799 22.699,25.799 ZM13.100,8.39 C11.104,8.39 9.388,9.220 8.601,10.919 L8.597,10.919 C8.588,10.937 8.583,10.956 8.575,10.974 C8.528,11.79 8.486,11.187 8.446,11.295 C8.427,11.348 8.407,11.398 8.389,11.451 C8.353,11.562 8.323,11.676 8.294,11.790 C8.281,11.844 8.264,11.896 8.253,11.951 C8.227,12.72 8.209,12.194 8.191,12.318 C8.185,12.369 8.174,12.417 8.169,12.468 C8.150,12.643 8.139,12.820 8.139,12.999 C8.139,15.739 10.360,17.959 13.100,17.959 C15.839,17.959 18.59,15.739 18.59,12.999 C18.59,12.820 18.49,12.643 18.30,12.468 C18.25,12.417 18.14,12.369 18.7,12.318 C17.990,12.194 17.972,12.72 17.946,11.951 C17.934,11.896 17.918,11.844 17.905,11.790 C17.876,11.676 17.846,11.562 17.810,11.451 C17.792,11.398 17.772,11.348 17.753,11.295 C17.713,11.187 17.671,11.79 17.624,10.974 C17.616,10.956 17.610,10.937 17.602,10.919 L17.598,10.919 C16.811,9.220 15.95,8.39 13.100,8.39 ZM23.19,4.359 C23.19,3.652 22.446,3.79 21.739,3.79 L19.179,3.79 C18.473,3.79 17.900,3.652 17.900,4.359 L17.900,6.919 C17.900,7.626 18.473,8.199 19.179,8.199 L21.739,8.199 C22.446,8.199 23.19,7.626 23.19,6.919 L23.19,4.359 ZM23.19,10.919 L20.660,10.919 C20.842,11.582 20.940,12.279 20.940,12.999 C20.940,17.329 17.429,20.839 13.100,20.839 C8.770,20.839 5.260,17.329 5.260,12.999 C5.260,12.279 5.357,11.582 5.539,10.919 L3.179,10.919 L3.179,21.639 C3.179,22.346 3.753,22.919 4.459,22.919 L21.739,22.919 C22.446,22.919 23.19,22.346 23.19,21.639 L23.19,10.919 Z"/>
</svg>