<svg 
 xmlns="http://www.w3.org/2000/svg"
 viewbox="0 0 21 26"
>
<path 
 d="M9.50,16.853 C8.841,17.686 8.631,18.560 8.412,19.414 C8.197,20.255 8.8,21.110 7.695,21.883 C7.176,23.165 6.516,24.403 5.651,25.405 C5.77,26.72 5.199,25.805 5.26,25.769 C4.894,25.742 4.882,25.613 4.856,25.425 C4.715,24.406 4.811,23.230 4.864,22.85 C4.923,20.782 5.197,19.698 5.452,18.614 C5.937,16.551 6.398,14.527 6.887,12.451 C6.920,12.313 7.7,12.84 6.977,12.5 C6.756,11.428 6.612,10.911 6.549,10.305 C6.476,9.609 6.532,8.961 6.688,8.362 C6.964,7.304 7.601,6.366 8.582,6.24 C9.206,5.807 9.897,5.905 10.316,6.156 C10.749,6.414 11.45,6.822 11.184,7.401 C11.331,8.17 11.222,8.752 11.104,9.293 C10.837,10.511 10.486,11.426 10.167,12.602 C10.9,13.186 9.830,13.785 9.977,14.414 C10.113,14.992 10.414,15.391 10.825,15.689 C11.250,15.999 11.754,16.169 12.449,16.145 C13.677,16.102 14.530,15.317 15.101,14.576 C16.13,13.392 16.566,11.793 16.775,9.890 C16.843,9.277 16.893,8.572 16.845,7.876 C16.758,6.592 16.356,5.560 15.719,4.759 C15.112,3.997 14.253,3.390 13.207,3.49 C12.170,2.710 10.734,2.597 9.459,2.816 C7.142,3.213 5.507,4.530 4.545,6.348 C4.40,7.300 3.708,8.396 3.708,9.758 C3.708,10.809 3.967,11.623 4.386,12.258 C4.518,12.460 4.714,12.625 4.844,12.855 C5.29,13.181 4.815,13.667 4.724,14.20 C4.614,14.445 4.603,15.32 4.106,15.42 C3.901,15.45 3.643,14.895 3.468,14.799 C2.164,14.77 1.371,12.765 1.46,11.64 C0.849,10.31 0.849,8.825 1.46,7.826 C1.237,6.860 1.591,5.968 1.983,5.245 C2.797,3.742 3.990,2.541 5.442,1.683 C6.558,1.22 7.818,0.560 9.349,0.337 C9.858,0.262 10.384,0.232 10.954,0.205 C12.622,0.126 14.139,0.504 15.280,1.14 C16.486,1.553 17.447,2.271 18.261,3.160 C19.98,4.75 19.708,5.140 20.95,6.469 C20.296,7.161 20.492,7.902 20.492,8.756 C20.492,9.614 20.311,10.369 20.185,11.125 C19.711,13.953 18.366,16.265 16.347,17.582 C15.857,17.901 15.265,18.195 14.593,18.392 C13.925,18.586 13.165,18.731 12.350,18.675 C11.558,18.620 10.911,18.405 10.366,18.98 C9.826,17.792 9.372,17.419 9.50,16.853 Z"/>
</svg>