<svg 
 xmlns="http://www.w3.org/2000/svg"
 viewbox="0 0 26 22"
 >
<path
 d="M17.512,0.600 C19.547,0.564 20.629,1.306 21.663,2.248 C22.541,2.173 23.682,1.682 24.354,1.341 C24.572,1.222 24.790,1.102 25.8,0.984 C24.624,2.21 24.103,2.833 23.304,3.449 C23.126,3.585 22.950,3.771 22.727,3.858 C22.727,3.862 22.727,3.866 22.727,3.870 C23.867,3.859 24.807,3.345 25.700,3.66 C25.700,3.70 25.700,3.74 25.700,3.79 C25.231,3.824 24.596,4.580 23.919,5.123 C23.645,5.340 23.372,5.557 23.99,5.774 C23.113,6.981 23.81,8.132 22.855,9.147 C21.543,15.42 18.68,19.44 12.566,20.758 C10.591,21.374 7.398,21.627 5.135,21.65 C4.12,20.786 2.999,20.471 2.47,20.56 C1.519,19.825 1.29,19.574 0.561,19.289 C0.407,19.195 0.253,19.102 0.99,19.8 C0.610,19.24 1.207,19.164 1.778,19.72 C2.294,18.988 2.801,19.11 3.277,18.906 C4.465,18.645 5.520,18.301 6.429,17.769 C6.870,17.511 7.538,17.209 7.851,16.837 C7.261,16.847 6.726,16.710 6.288,16.556 C4.589,15.956 3.600,14.853 2.957,13.196 C3.472,13.252 4.955,13.386 5.301,13.94 C4.653,13.58 4.30,12.682 3.585,12.404 C2.218,11.549 1.103,10.115 1.112,7.907 C1.291,7.993 1.470,8.78 1.650,8.162 C1.993,8.307 2.342,8.385 2.752,8.470 C2.925,8.505 3.271,8.607 3.469,8.533 C3.461,8.533 3.452,8.533 3.444,8.533 C3.179,8.226 2.748,8.20 2.483,7.690 C1.606,6.600 0.784,4.923 1.304,2.925 C1.436,2.418 1.645,1.971 1.868,1.558 C1.876,1.563 1.885,1.567 1.893,1.571 C1.995,1.785 2.223,1.942 2.367,2.120 C2.815,2.675 3.368,3.175 3.930,3.615 C5.848,5.115 7.576,6.36 10.350,6.719 C11.53,6.892 11.867,7.25 12.707,7.26 C12.471,6.338 12.547,5.226 12.733,4.560 C13.200,2.887 14.216,1.681 15.706,1.35 C16.62,0.880 16.457,0.767 16.871,0.677 C17.85,0.651 17.299,0.626 17.512,0.600 Z"/>
</svg>